<?xml version="1.0" encoding="utf-8" standalone="no"?>
<!DOCTYPE svg PUBLIC "-//W3C//DTD SVG 1.1//EN"
  "http://www.w3.org/Graphics/SVG/1.1/DTD/svg11.dtd">
<svg xmlns:xlink="http://www.w3.org/1999/xlink" width="1008pt" height="446.4pt" viewBox="0 0 1008 446.4" xmlns="http://www.w3.org/2000/svg" version="1.1">
 <metadata>
  <rdf:RDF xmlns:dc="http://purl.org/dc/elements/1.1/" xmlns:cc="http://creativecommons.org/ns#" xmlns:rdf="http://www.w3.org/1999/02/22-rdf-syntax-ns#">
   <cc:Work>
    <dc:type rdf:resource="http://purl.org/dc/dcmitype/StillImage"/>
    <dc:date>2026-08-06T17:40:14.994351</dc:date>
    <dc:format>image/svg+xml</dc:format>
    <dc:creator>
     <cc:Agent>
      <dc:title>Matplotlib v3.11.0, https://matplotlib.org/</dc:title>
     </cc:Agent>
    </dc:creator>
   </cc:Work>
  </rdf:RDF>
 </metadata>
 <defs>
  <style type="text/css">*{stroke-linejoin: round; stroke-linecap: butt}</style>
 </defs>
 <g id="figure_1">
  <g id="patch_1">
   <path d="M 0 446.4
L 1008 446.4
L 1008 0
L 0 0
z
" style="fill: #ffffff"/>
  </g>
  <g id="axes_1">
   <g id="patch_2">
    <path d="M 47.962344 402.515313
L 498.6 402.515313
L 498.6 51.840703
L 47.962344 51.840703
z
" style="fill: #ffffff"/>
   </g>
   <g id="PathCollection_1"/>
   <g id="PathCollection_2"/>
   <g id="PathCollection_3"/>
   <g id="matplotlib.axis_1">
    <g id="xtick_1">
     <g id="line2d_1">
      <path d="M 79.044348 402.515313
L 79.044348 51.840703
" clip-path="url(#p2b1a176a53)" style="fill: none; stroke: #b0b0b0; stroke-opacity: 0.2; stroke-width: 0.8; stroke-linecap: square"/>
     </g>
     <g id="line2d_2">
      <defs>
       <path id="mb81042d28d" d="M 0 0
L 0 3.5
" style="stroke: #000000; stroke-width: 0.8"/>
      </defs>
      <g>
       <use xlink:href="#mb81042d28d" x="79.044348" y="402.515313" style="stroke: #000000; stroke-width: 0.8"/>
      </g>
     </g>
     <g id="text_1">
      <!-- $\mathdefault{10^{-2}}$ -->
      <g transform="translate(67.294348 418.915313) scale(0.1 -0.1)">
       <defs>
        <path id="DejaVuSans-14" d="M 794 531
L 1825 531
L 1825 4091
L 703 3866
L 703 4441
L 1819 4666
L 2450 4666
L 2450 531
L 3481 531
L 3481 0
L 794 0
L 794 531
z
" transform="scale(0.015625)"/>
        <path id="DejaVuSans-13" d="M 2034 4250
Q 1547 4250 1301 3770
Q 1056 3291 1056 2328
Q 1056 1369 1301 889
Q 1547 409 2034 409
Q 2525 409 2770 889
Q 3016 1369 3016 2328
Q 3016 3291 2770 3770
Q 2525 4250 2034 4250
z
M 2034 4750
Q 2819 4750 3233 4129
Q 3647 3509 3647 2328
Q 3647 1150 3233 529
Q 2819 -91 2034 -91
Q 1250 -91 836 529
Q 422 1150 422 2328
Q 422 3509 836 4129
Q 1250 4750 2034 4750
z
" transform="scale(0.015625)"/>
        <path id="DejaVuSans-c9c" d="M 678 2272
L 4684 2272
L 4684 1741
L 678 1741
L 678 2272
z
" transform="scale(0.015625)"/>
        <path id="DejaVuSans-15" d="M 1228 531
L 3431 531
L 3431 0
L 469 0
L 469 531
Q 828 903 1448 1529
Q 2069 2156 2228 2338
Q 2531 2678 2651 2914
Q 2772 3150 2772 3378
Q 2772 3750 2511 3984
Q 2250 4219 1831 4219
Q 1534 4219 1204 4116
Q 875 4013 500 3803
L 500 4441
Q 881 4594 1212 4672
Q 1544 4750 1819 4750
Q 2544 4750 2975 4387
Q 3406 4025 3406 3419
Q 3406 3131 3298 2873
Q 3191 2616 2906 2266
Q 2828 2175 2409 1742
Q 1991 1309 1228 531
z
" transform="scale(0.015625)"/>
       </defs>
       <use xlink:href="#DejaVuSans-14" transform="translate(0 0.746875)"/>
       <use xlink:href="#DejaVuSans-13" transform="translate(63.623047 0.746875)"/>
       <use xlink:href="#DejaVuSans-c9c" transform="translate(128.203125 42.046875) scale(0.7)"/>
       <use xlink:href="#DejaVuSans-15" transform="translate(186.855469 42.046875) scale(0.7)"/>
      </g>
     </g>
    </g>
    <g id="xtick_2">
     <g id="line2d_3">
      <path d="M 301.881593 402.515313
L 301.881593 51.840703
" clip-path="url(#p2b1a176a53)" style="fill: none; stroke: #b0b0b0; stroke-opacity: 0.2; stroke-width: 0.8; stroke-linecap: square"/>
     </g>
     <g id="line2d_4">
      <g>
       <use xlink:href="#mb81042d28d" x="301.881593" y="402.515313" style="stroke: #000000; stroke-width: 0.8"/>
      </g>
     </g>
     <g id="text_2">
      <!-- $\mathdefault{10^{-1}}$ -->
      <g transform="translate(290.131593 418.815313) scale(0.1 -0.1)">
       <use xlink:href="#DejaVuSans-14" transform="translate(0 0.665625)"/>
       <use xlink:href="#DejaVuSans-13" transform="translate(63.623047 0.665625)"/>
       <use xlink:href="#DejaVuSans-c9c" transform="translate(128.203125 41.965625) scale(0.7)"/>
       <use xlink:href="#DejaVuSans-14" transform="translate(186.855469 41.965625) scale(0.7)"/>
      </g>
     </g>
    </g>
    <g id="xtick_3">
     <g id="line2d_5">
      <defs>
       <path id="m4a8172843e" d="M 0 0
L 0 2
" style="stroke: #000000; stroke-width: 0.6"/>
      </defs>
      <g>
       <use xlink:href="#m4a8172843e" x="57.449188" y="402.515313" style="stroke: #000000; stroke-width: 0.6"/>
      </g>
     </g>
    </g>
    <g id="xtick_4">
     <g id="line2d_6">
      <g>
       <use xlink:href="#m4a8172843e" x="68.847875" y="402.515313" style="stroke: #000000; stroke-width: 0.6"/>
      </g>
     </g>
    </g>
    <g id="xtick_5">
     <g id="line2d_7">
      <g>
       <use xlink:href="#m4a8172843e" x="146.125043" y="402.515313" style="stroke: #000000; stroke-width: 0.6"/>
      </g>
     </g>
    </g>
    <g id="xtick_6">
     <g id="line2d_8">
      <g>
       <use xlink:href="#m4a8172843e" x="185.364734" y="402.515313" style="stroke: #000000; stroke-width: 0.6"/>
      </g>
     </g>
    </g>
    <g id="xtick_7">
     <g id="line2d_9">
      <g>
       <use xlink:href="#m4a8172843e" x="213.205738" y="402.515313" style="stroke: #000000; stroke-width: 0.6"/>
      </g>
     </g>
    </g>
    <g id="xtick_8">
     <g id="line2d_10">
      <g>
       <use xlink:href="#m4a8172843e" x="234.800898" y="402.515313" style="stroke: #000000; stroke-width: 0.6"/>
      </g>
     </g>
    </g>
    <g id="xtick_9">
     <g id="line2d_11">
      <g>
       <use xlink:href="#m4a8172843e" x="252.445429" y="402.515313" style="stroke: #000000; stroke-width: 0.6"/>
      </g>
     </g>
    </g>
    <g id="xtick_10">
     <g id="line2d_12">
      <g>
       <use xlink:href="#m4a8172843e" x="267.363667" y="402.515313" style="stroke: #000000; stroke-width: 0.6"/>
      </g>
     </g>
    </g>
    <g id="xtick_11">
     <g id="line2d_13">
      <g>
       <use xlink:href="#m4a8172843e" x="280.286433" y="402.515313" style="stroke: #000000; stroke-width: 0.6"/>
      </g>
     </g>
    </g>
    <g id="xtick_12">
     <g id="line2d_14">
      <g>
       <use xlink:href="#m4a8172843e" x="291.68512" y="402.515313" style="stroke: #000000; stroke-width: 0.6"/>
      </g>
     </g>
    </g>
    <g id="xtick_13">
     <g id="line2d_15">
      <g>
       <use xlink:href="#m4a8172843e" x="368.962288" y="402.515313" style="stroke: #000000; stroke-width: 0.6"/>
      </g>
     </g>
    </g>
    <g id="xtick_14">
     <g id="line2d_16">
      <g>
       <use xlink:href="#m4a8172843e" x="408.201979" y="402.515313" style="stroke: #000000; stroke-width: 0.6"/>
      </g>
     </g>
    </g>
    <g id="xtick_15">
     <g id="line2d_17">
      <g>
       <use xlink:href="#m4a8172843e" x="436.042983" y="402.515313" style="stroke: #000000; stroke-width: 0.6"/>
      </g>
     </g>
    </g>
    <g id="xtick_16">
     <g id="line2d_18">
      <g>
       <use xlink:href="#m4a8172843e" x="457.638143" y="402.515313" style="stroke: #000000; stroke-width: 0.6"/>
      </g>
     </g>
    </g>
    <g id="xtick_17">
     <g id="line2d_19">
      <g>
       <use xlink:href="#m4a8172843e" x="475.282674" y="402.515313" style="stroke: #000000; stroke-width: 0.6"/>
      </g>
     </g>
    </g>
    <g id="xtick_18">
     <g id="line2d_20">
      <g>
       <use xlink:href="#m4a8172843e" x="490.200912" y="402.515313" style="stroke: #000000; stroke-width: 0.6"/>
      </g>
     </g>
    </g>
    <g id="text_3">
     <!-- Steady-state Modal GPU cost (USD) -->
     <g transform="translate(184.626484 432.916094) scale(0.1 -0.1)">
      <defs>
       <path id="DejaVuSans-36" d="M 3425 4513
L 3425 3897
Q 3066 4069 2747 4153
Q 2428 4238 2131 4238
Q 1616 4238 1336 4038
Q 1056 3838 1056 3469
Q 1056 3159 1242 3001
Q 1428 2844 1947 2747
L 2328 2669
Q 3034 2534 3370 2195
Q 3706 1856 3706 1288
Q 3706 609 3251 259
Q 2797 -91 1919 -91
Q 1588 -91 1214 -16
Q 841 59 441 206
L 441 856
Q 825 641 1194 531
Q 1563 422 1919 422
Q 2459 422 2753 634
Q 3047 847 3047 1241
Q 3047 1584 2836 1778
Q 2625 1972 2144 2069
L 1759 2144
Q 1053 2284 737 2584
Q 422 2884 422 3419
Q 422 4038 858 4394
Q 1294 4750 2059 4750
Q 2388 4750 2728 4690
Q 3069 4631 3425 4513
z
" transform="scale(0.015625)"/>
       <path id="DejaVuSans-57" d="M 1172 4494
L 1172 3500
L 2356 3500
L 2356 3053
L 1172 3053
L 1172 1153
Q 1172 725 1289 603
Q 1406 481 1766 481
L 2356 481
L 2356 0
L 1766 0
Q 1100 0 847 248
Q 594 497 594 1153
L 594 3053
L 172 3053
L 172 3500
L 594 3500
L 594 4494
L 1172 4494
z
" transform="scale(0.015625)"/>
       <path id="DejaVuSans-48" d="M 3597 1894
L 3597 1613
L 953 1613
Q 991 1019 1311 708
Q 1631 397 2203 397
Q 2534 397 2845 478
Q 3156 559 3463 722
L 3463 178
Q 3153 47 2828 -22
Q 2503 -91 2169 -91
Q 1331 -91 842 396
Q 353 884 353 1716
Q 353 2575 817 3079
Q 1281 3584 2069 3584
Q 2775 3584 3186 3129
Q 3597 2675 3597 1894
z
M 3022 2063
Q 3016 2534 2758 2815
Q 2500 3097 2075 3097
Q 1594 3097 1305 2825
Q 1016 2553 972 2059
L 3022 2063
z
" transform="scale(0.015625)"/>
       <path id="DejaVuSans-44" d="M 2194 1759
Q 1497 1759 1228 1600
Q 959 1441 959 1056
Q 959 750 1161 570
Q 1363 391 1709 391
Q 2188 391 2477 730
Q 2766 1069 2766 1631
L 2766 1759
L 2194 1759
z
M 3341 1997
L 3341 0
L 2766 0
L 2766 531
Q 2569 213 2275 61
Q 1981 -91 1556 -91
Q 1019 -91 701 211
Q 384 513 384 1019
Q 384 1609 779 1909
Q 1175 2209 1959 2209
L 2766 2209
L 2766 2266
Q 2766 2663 2505 2880
Q 2244 3097 1772 3097
Q 1472 3097 1187 3025
Q 903 2953 641 2809
L 641 3341
Q 956 3463 1253 3523
Q 1550 3584 1831 3584
Q 2591 3584 2966 3190
Q 3341 2797 3341 1997
z
" transform="scale(0.015625)"/>
       <path id="DejaVuSans-47" d="M 2906 2969
L 2906 4863
L 3481 4863
L 3481 0
L 2906 0
L 2906 525
Q 2725 213 2448 61
Q 2172 -91 1784 -91
Q 1150 -91 751 415
Q 353 922 353 1747
Q 353 2572 751 3078
Q 1150 3584 1784 3584
Q 2172 3584 2448 3432
Q 2725 3281 2906 2969
z
M 947 1747
Q 947 1113 1208 752
Q 1469 391 1925 391
Q 2381 391 2643 752
Q 2906 1113 2906 1747
Q 2906 2381 2643 2742
Q 2381 3103 1925 3103
Q 1469 3103 1208 2742
Q 947 2381 947 1747
z
" transform="scale(0.015625)"/>
       <path id="DejaVuSans-5c" d="M 2059 -325
Q 1816 -950 1584 -1140
Q 1353 -1331 966 -1331
L 506 -1331
L 506 -850
L 844 -850
Q 1081 -850 1212 -737
Q 1344 -625 1503 -206
L 1606 56
L 191 3500
L 800 3500
L 1894 763
L 2988 3500
L 3597 3500
L 2059 -325
z
" transform="scale(0.015625)"/>
       <path id="DejaVuSans-10" d="M 313 2009
L 1997 2009
L 1997 1497
L 313 1497
L 313 2009
z
" transform="scale(0.015625)"/>
       <path id="DejaVuSans-56" d="M 2834 3397
L 2834 2853
Q 2591 2978 2328 3040
Q 2066 3103 1784 3103
Q 1356 3103 1142 2972
Q 928 2841 928 2578
Q 928 2378 1081 2264
Q 1234 2150 1697 2047
L 1894 2003
Q 2506 1872 2764 1633
Q 3022 1394 3022 966
Q 3022 478 2636 193
Q 2250 -91 1575 -91
Q 1294 -91 989 -36
Q 684 19 347 128
L 347 722
Q 666 556 975 473
Q 1284 391 1588 391
Q 1994 391 2212 530
Q 2431 669 2431 922
Q 2431 1156 2273 1281
Q 2116 1406 1581 1522
L 1381 1569
Q 847 1681 609 1914
Q 372 2147 372 2553
Q 372 3047 722 3315
Q 1072 3584 1716 3584
Q 2034 3584 2315 3537
Q 2597 3491 2834 3397
z
" transform="scale(0.015625)"/>
       <path id="DejaVuSans-3" transform="scale(0.015625)"/>
       <path id="DejaVuSans-30" d="M 628 4666
L 1569 4666
L 2759 1491
L 3956 4666
L 4897 4666
L 4897 0
L 4281 0
L 4281 4097
L 3078 897
L 2444 897
L 1241 4097
L 1241 0
L 628 0
L 628 4666
z
" transform="scale(0.015625)"/>
       <path id="DejaVuSans-52" d="M 1959 3097
Q 1497 3097 1228 2736
Q 959 2375 959 1747
Q 959 1119 1226 758
Q 1494 397 1959 397
Q 2419 397 2687 759
Q 2956 1122 2956 1747
Q 2956 2369 2687 2733
Q 2419 3097 1959 3097
z
M 1959 3584
Q 2709 3584 3137 3096
Q 3566 2609 3566 1747
Q 3566 888 3137 398
Q 2709 -91 1959 -91
Q 1206 -91 779 398
Q 353 888 353 1747
Q 353 2609 779 3096
Q 1206 3584 1959 3584
z
" transform="scale(0.015625)"/>
       <path id="DejaVuSans-4f" d="M 603 4863
L 1178 4863
L 1178 0
L 603 0
L 603 4863
z
" transform="scale(0.015625)"/>
       <path id="DejaVuSans-2a" d="M 3809 666
L 3809 1919
L 2778 1919
L 2778 2438
L 4434 2438
L 4434 434
Q 4069 175 3628 42
Q 3188 -91 2688 -91
Q 1594 -91 976 548
Q 359 1188 359 2328
Q 359 3472 976 4111
Q 1594 4750 2688 4750
Q 3144 4750 3555 4637
Q 3966 4525 4313 4306
L 4313 3634
Q 3963 3931 3569 4081
Q 3175 4231 2741 4231
Q 1884 4231 1454 3753
Q 1025 3275 1025 2328
Q 1025 1384 1454 906
Q 1884 428 2741 428
Q 3075 428 3337 486
Q 3600 544 3809 666
z
" transform="scale(0.015625)"/>
       <path id="DejaVuSans-33" d="M 1259 4147
L 1259 2394
L 2053 2394
Q 2494 2394 2734 2622
Q 2975 2850 2975 3272
Q 2975 3691 2734 3919
Q 2494 4147 2053 4147
L 1259 4147
z
M 628 4666
L 2053 4666
Q 2838 4666 3239 4311
Q 3641 3956 3641 3272
Q 3641 2581 3239 2228
Q 2838 1875 2053 1875
L 1259 1875
L 1259 0
L 628 0
L 628 4666
z
" transform="scale(0.015625)"/>
       <path id="DejaVuSans-38" d="M 556 4666
L 1191 4666
L 1191 1831
Q 1191 1081 1462 751
Q 1734 422 2344 422
Q 2950 422 3222 751
Q 3494 1081 3494 1831
L 3494 4666
L 4128 4666
L 4128 1753
Q 4128 841 3676 375
Q 3225 -91 2344 -91
Q 1459 -91 1007 375
Q 556 841 556 1753
L 556 4666
z
" transform="scale(0.015625)"/>
       <path id="DejaVuSans-46" d="M 3122 3366
L 3122 2828
Q 2878 2963 2633 3030
Q 2388 3097 2138 3097
Q 1578 3097 1268 2742
Q 959 2388 959 1747
Q 959 1106 1268 751
Q 1578 397 2138 397
Q 2388 397 2633 464
Q 2878 531 3122 666
L 3122 134
Q 2881 22 2623 -34
Q 2366 -91 2075 -91
Q 1284 -91 818 406
Q 353 903 353 1747
Q 353 2603 823 3093
Q 1294 3584 2113 3584
Q 2378 3584 2631 3529
Q 2884 3475 3122 3366
z
" transform="scale(0.015625)"/>
       <path id="DejaVuSans-b" d="M 1984 4856
Q 1566 4138 1362 3434
Q 1159 2731 1159 2009
Q 1159 1288 1364 580
Q 1569 -128 1984 -844
L 1484 -844
Q 1016 -109 783 600
Q 550 1309 550 2009
Q 550 2706 781 3412
Q 1013 4119 1484 4856
L 1984 4856
z
" transform="scale(0.015625)"/>
       <path id="DejaVuSans-27" d="M 1259 4147
L 1259 519
L 2022 519
Q 2988 519 3436 956
Q 3884 1394 3884 2338
Q 3884 3275 3436 3711
Q 2988 4147 2022 4147
L 1259 4147
z
M 628 4666
L 1925 4666
Q 3281 4666 3915 4102
Q 4550 3538 4550 2338
Q 4550 1131 3912 565
Q 3275 0 1925 0
L 628 0
L 628 4666
z
" transform="scale(0.015625)"/>
       <path id="DejaVuSans-c" d="M 513 4856
L 1013 4856
Q 1481 4119 1714 3412
Q 1947 2706 1947 2009
Q 1947 1309 1714 600
Q 1481 -109 1013 -844
L 513 -844
Q 928 -128 1133 580
Q 1338 1288 1338 2009
Q 1338 2731 1133 3434
Q 928 4138 513 4856
z
" transform="scale(0.015625)"/>
      </defs>
      <use xlink:href="#DejaVuSans-36"/>
      <use xlink:href="#DejaVuSans-57" transform="translate(63.484375 0)"/>
      <use xlink:href="#DejaVuSans-48" transform="translate(102.6875 0)"/>
      <use xlink:href="#DejaVuSans-44" transform="translate(164.21875 0)"/>
      <use xlink:href="#DejaVuSans-47" transform="translate(225.5 0)"/>
      <use xlink:href="#DejaVuSans-5c" transform="translate(288.984375 0)"/>
      <use xlink:href="#DejaVuSans-10" transform="translate(346.421875 0)"/>
      <use xlink:href="#DejaVuSans-56" transform="translate(382.5 0)"/>
      <use xlink:href="#DejaVuSans-57" transform="translate(434.59375 0)"/>
      <use xlink:href="#DejaVuSans-44" transform="translate(473.796875 0)"/>
      <use xlink:href="#DejaVuSans-57" transform="translate(535.078125 0)"/>
      <use xlink:href="#DejaVuSans-48" transform="translate(574.28125 0)"/>
      <use xlink:href="#DejaVuSans-3" transform="translate(635.8125 0)"/>
      <use xlink:href="#DejaVuSans-30" transform="translate(667.59375 0)"/>
      <use xlink:href="#DejaVuSans-52" transform="translate(753.875 0)"/>
      <use xlink:href="#DejaVuSans-47" transform="translate(815.0625 0)"/>
      <use xlink:href="#DejaVuSans-44" transform="translate(878.546875 0)"/>
      <use xlink:href="#DejaVuSans-4f" transform="translate(939.828125 0)"/>
      <use xlink:href="#DejaVuSans-3" transform="translate(967.609375 0)"/>
      <use xlink:href="#DejaVuSans-2a" transform="translate(999.390625 0)"/>
      <use xlink:href="#DejaVuSans-33" transform="translate(1076.875 0)"/>
      <use xlink:href="#DejaVuSans-38" transform="translate(1137.171875 0)"/>
      <use xlink:href="#DejaVuSans-3" transform="translate(1210.359375 0)"/>
      <use xlink:href="#DejaVuSans-46" transform="translate(1242.140625 0)"/>
      <use xlink:href="#DejaVuSans-52" transform="translate(1297.125 0)"/>
      <use xlink:href="#DejaVuSans-56" transform="translate(1358.3125 0)"/>
      <use xlink:href="#DejaVuSans-57" transform="translate(1410.40625 0)"/>
      <use xlink:href="#DejaVuSans-3" transform="translate(1449.609375 0)"/>
      <use xlink:href="#DejaVuSans-b" transform="translate(1481.390625 0)"/>
      <use xlink:href="#DejaVuSans-38" transform="translate(1520.40625 0)"/>
      <use xlink:href="#DejaVuSans-36" transform="translate(1593.59375 0)"/>
      <use xlink:href="#DejaVuSans-27" transform="translate(1657.078125 0)"/>
      <use xlink:href="#DejaVuSans-c" transform="translate(1734.078125 0)"/>
     </g>
    </g>
   </g>
   <g id="matplotlib.axis_2">
    <g id="ytick_1">
     <g id="line2d_21">
      <path d="M 47.962344 353.405758
L 498.6 353.405758
" clip-path="url(#p2b1a176a53)" style="fill: none; stroke: #b0b0b0; stroke-opacity: 0.2; stroke-width: 0.8; stroke-linecap: square"/>
     </g>
     <g id="line2d_22">
      <defs>
       <path id="me0683364ff" d="M 0 0
L -3.5 0
" style="stroke: #000000; stroke-width: 0.8"/>
      </defs>
      <g>
       <use xlink:href="#me0683364ff" x="47.962344" y="353.405758" style="stroke: #000000; stroke-width: 0.8"/>
      </g>
     </g>
     <g id="text_4">
      <!-- 3.0 -->
      <g transform="translate(25.059219 357.204586) scale(0.1 -0.1)">
       <defs>
        <path id="DejaVuSans-16" d="M 2597 2516
Q 3050 2419 3304 2112
Q 3559 1806 3559 1356
Q 3559 666 3084 287
Q 2609 -91 1734 -91
Q 1441 -91 1130 -33
Q 819 25 488 141
L 488 750
Q 750 597 1062 519
Q 1375 441 1716 441
Q 2309 441 2620 675
Q 2931 909 2931 1356
Q 2931 1769 2642 2001
Q 2353 2234 1838 2234
L 1294 2234
L 1294 2753
L 1863 2753
Q 2328 2753 2575 2939
Q 2822 3125 2822 3475
Q 2822 3834 2567 4026
Q 2313 4219 1838 4219
Q 1578 4219 1281 4162
Q 984 4106 628 3988
L 628 4550
Q 988 4650 1302 4700
Q 1616 4750 1894 4750
Q 2613 4750 3031 4423
Q 3450 4097 3450 3541
Q 3450 3153 3228 2886
Q 3006 2619 2597 2516
z
" transform="scale(0.015625)"/>
        <path id="DejaVuSans-11" d="M 684 794
L 1344 794
L 1344 0
L 684 0
L 684 794
z
" transform="scale(0.015625)"/>
       </defs>
       <use xlink:href="#DejaVuSans-16"/>
       <use xlink:href="#DejaVuSans-11" transform="translate(63.625 0)"/>
       <use xlink:href="#DejaVuSans-13" transform="translate(95.40625 0)"/>
      </g>
     </g>
    </g>
    <g id="ytick_2">
     <g id="line2d_23">
      <path d="M 47.962344 300.336802
L 498.6 300.336802
" clip-path="url(#p2b1a176a53)" style="fill: none; stroke: #b0b0b0; stroke-opacity: 0.2; stroke-width: 0.8; stroke-linecap: square"/>
     </g>
     <g id="line2d_24">
      <g>
       <use xlink:href="#me0683364ff" x="47.962344" y="300.336802" style="stroke: #000000; stroke-width: 0.8"/>
      </g>
     </g>
     <g id="text_5">
      <!-- 3.1 -->
      <g transform="translate(25.059219 304.13563) scale(0.1 -0.1)">
       <use xlink:href="#DejaVuSans-16"/>
       <use xlink:href="#DejaVuSans-11" transform="translate(63.625 0)"/>
       <use xlink:href="#DejaVuSans-14" transform="translate(95.40625 0)"/>
      </g>
     </g>
    </g>
    <g id="ytick_3">
     <g id="line2d_25">
      <path d="M 47.962344 247.267846
L 498.6 247.267846
" clip-path="url(#p2b1a176a53)" style="fill: none; stroke: #b0b0b0; stroke-opacity: 0.2; stroke-width: 0.8; stroke-linecap: square"/>
     </g>
     <g id="line2d_26">
      <g>
       <use xlink:href="#me0683364ff" x="47.962344" y="247.267846" style="stroke: #000000; stroke-width: 0.8"/>
      </g>
     </g>
     <g id="text_6">
      <!-- 3.2 -->
      <g transform="translate(25.059219 251.066674) scale(0.1 -0.1)">
       <use xlink:href="#DejaVuSans-16"/>
       <use xlink:href="#DejaVuSans-11" transform="translate(63.625 0)"/>
       <use xlink:href="#DejaVuSans-15" transform="translate(95.40625 0)"/>
      </g>
     </g>
    </g>
    <g id="ytick_4">
     <g id="line2d_27">
      <path d="M 47.962344 194.19889
L 498.6 194.19889
" clip-path="url(#p2b1a176a53)" style="fill: none; stroke: #b0b0b0; stroke-opacity: 0.2; stroke-width: 0.8; stroke-linecap: square"/>
     </g>
     <g id="line2d_28">
      <g>
       <use xlink:href="#me0683364ff" x="47.962344" y="194.19889" style="stroke: #000000; stroke-width: 0.8"/>
      </g>
     </g>
     <g id="text_7">
      <!-- 3.3 -->
      <g transform="translate(25.059219 197.997718) scale(0.1 -0.1)">
       <use xlink:href="#DejaVuSans-16"/>
       <use xlink:href="#DejaVuSans-11" transform="translate(63.625 0)"/>
       <use xlink:href="#DejaVuSans-16" transform="translate(95.40625 0)"/>
      </g>
     </g>
    </g>
    <g id="ytick_5">
     <g id="line2d_29">
      <path d="M 47.962344 141.129933
L 498.6 141.129933
" clip-path="url(#p2b1a176a53)" style="fill: none; stroke: #b0b0b0; stroke-opacity: 0.2; stroke-width: 0.8; stroke-linecap: square"/>
     </g>
     <g id="line2d_30">
      <g>
       <use xlink:href="#me0683364ff" x="47.962344" y="141.129933" style="stroke: #000000; stroke-width: 0.8"/>
      </g>
     </g>
     <g id="text_8">
      <!-- 3.4 -->
      <g transform="translate(25.059219 144.928762) scale(0.1 -0.1)">
       <defs>
        <path id="DejaVuSans-17" d="M 2419 4116
L 825 1625
L 2419 1625
L 2419 4116
z
M 2253 4666
L 3047 4666
L 3047 1625
L 3713 1625
L 3713 1100
L 3047 1100
L 3047 0
L 2419 0
L 2419 1100
L 313 1100
L 313 1709
L 2253 4666
z
" transform="scale(0.015625)"/>
       </defs>
       <use xlink:href="#DejaVuSans-16"/>
       <use xlink:href="#DejaVuSans-11" transform="translate(63.625 0)"/>
       <use xlink:href="#DejaVuSans-17" transform="translate(95.40625 0)"/>
      </g>
     </g>
    </g>
    <g id="ytick_6">
     <g id="line2d_31">
      <path d="M 47.962344 88.060977
L 498.6 88.060977
" clip-path="url(#p2b1a176a53)" style="fill: none; stroke: #b0b0b0; stroke-opacity: 0.2; stroke-width: 0.8; stroke-linecap: square"/>
     </g>
     <g id="line2d_32">
      <g>
       <use xlink:href="#me0683364ff" x="47.962344" y="88.060977" style="stroke: #000000; stroke-width: 0.8"/>
      </g>
     </g>
     <g id="text_9">
      <!-- 3.5 -->
      <g transform="translate(25.059219 91.859805) scale(0.1 -0.1)">
       <defs>
        <path id="DejaVuSans-18" d="M 691 4666
L 3169 4666
L 3169 4134
L 1269 4134
L 1269 2991
Q 1406 3038 1543 3061
Q 1681 3084 1819 3084
Q 2600 3084 3056 2656
Q 3513 2228 3513 1497
Q 3513 744 3044 326
Q 2575 -91 1722 -91
Q 1428 -91 1123 -41
Q 819 9 494 109
L 494 744
Q 775 591 1075 516
Q 1375 441 1709 441
Q 2250 441 2565 725
Q 2881 1009 2881 1497
Q 2881 1984 2565 2268
Q 2250 2553 1709 2553
Q 1456 2553 1204 2497
Q 953 2441 691 2322
L 691 4666
z
" transform="scale(0.015625)"/>
       </defs>
       <use xlink:href="#DejaVuSans-16"/>
       <use xlink:href="#DejaVuSans-11" transform="translate(63.625 0)"/>
       <use xlink:href="#DejaVuSans-18" transform="translate(95.40625 0)"/>
      </g>
     </g>
    </g>
    <g id="text_10">
     <!-- Final loss -->
     <g transform="translate(18.656875 249.947539) rotate(-90) scale(0.1 -0.1)">
      <defs>
       <path id="DejaVuSans-29" d="M 628 4666
L 3309 4666
L 3309 4134
L 1259 4134
L 1259 2759
L 3109 2759
L 3109 2228
L 1259 2228
L 1259 0
L 628 0
L 628 4666
z
" transform="scale(0.015625)"/>
       <path id="DejaVuSans-4c" d="M 603 3500
L 1178 3500
L 1178 0
L 603 0
L 603 3500
z
M 603 4863
L 1178 4863
L 1178 4134
L 603 4134
L 603 4863
z
" transform="scale(0.015625)"/>
       <path id="DejaVuSans-51" d="M 3513 2113
L 3513 0
L 2938 0
L 2938 2094
Q 2938 2591 2744 2837
Q 2550 3084 2163 3084
Q 1697 3084 1428 2787
Q 1159 2491 1159 1978
L 1159 0
L 581 0
L 581 3500
L 1159 3500
L 1159 2956
Q 1366 3272 1645 3428
Q 1925 3584 2291 3584
Q 2894 3584 3203 3211
Q 3513 2838 3513 2113
z
" transform="scale(0.015625)"/>
      </defs>
      <use xlink:href="#DejaVuSans-29"/>
      <use xlink:href="#DejaVuSans-4c" transform="translate(50.234375 0)"/>
      <use xlink:href="#DejaVuSans-51" transform="translate(78.015625 0)"/>
      <use xlink:href="#DejaVuSans-44" transform="translate(141.390625 0)"/>
      <use xlink:href="#DejaVuSans-4f" transform="translate(202.671875 0)"/>
      <use xlink:href="#DejaVuSans-3" transform="translate(230.453125 0)"/>
      <use xlink:href="#DejaVuSans-4f" transform="translate(262.234375 0)"/>
      <use xlink:href="#DejaVuSans-52" transform="translate(290.015625 0)"/>
      <use xlink:href="#DejaVuSans-56" transform="translate(351.203125 0)"/>
      <use xlink:href="#DejaVuSans-56" transform="translate(403.296875 0)"/>
     </g>
    </g>
   </g>
   <g id="line2d_33">
    <path d="M 68.445874 67.780458
L 136.351038 202.553994
L 322.357795 309.176286
" clip-path="url(#p2b1a176a53)" style="fill: none; stroke: #2563eb; stroke-width: 1.3; stroke-linecap: square"/>
    <defs>
     <path id="m4a444b24c8" d="M 0 3
C 0.795609 3 1.55874 2.683901 2.12132 2.12132
C 2.683901 1.55874 3 0.795609 3 0
C 3 -0.795609 2.683901 -1.55874 2.12132 -2.12132
C 1.55874 -2.683901 0.795609 -3 0 -3
C -0.795609 -3 -1.55874 -2.683901 -2.12132 -2.12132
C -2.683901 -1.55874 -3 -0.795609 -3 0
C -3 0.795609 -2.683901 1.55874 -2.12132 2.12132
C -1.55874 2.683901 -0.795609 3 0 3
z
" style="stroke: #2563eb"/>
    </defs>
    <g clip-path="url(#p2b1a176a53)">
     <use xlink:href="#m4a444b24c8" x="68.445874" y="67.780458" style="fill: #2563eb; stroke: #2563eb"/>
     <use xlink:href="#m4a444b24c8" x="136.351038" y="202.553994" style="fill: #2563eb; stroke: #2563eb"/>
     <use xlink:href="#m4a444b24c8" x="322.357795" y="309.176286" style="fill: #2563eb; stroke: #2563eb"/>
    </g>
   </g>
   <g id="line2d_34">
    <path d="M 135.526568 96.056418
L 203.431733 230.779227
L 389.43849 336.595756
" clip-path="url(#p2b1a176a53)" style="fill: none; stroke: #111827; stroke-width: 1.3; stroke-linecap: square"/>
    <defs>
     <path id="m4342ed174e" d="M 0 3
C 0.795609 3 1.55874 2.683901 2.12132 2.12132
C 2.683901 1.55874 3 0.795609 3 0
C 3 -0.795609 2.683901 -1.55874 2.12132 -2.12132
C 1.55874 -2.683901 0.795609 -3 0 -3
C -0.795609 -3 -1.55874 -2.683901 -2.12132 -2.12132
C -2.683901 -1.55874 -3 -0.795609 -3 0
C -3 0.795609 -2.683901 1.55874 -2.12132 2.12132
C -1.55874 2.683901 -0.795609 3 0 3
z
" style="stroke: #111827"/>
    </defs>
    <g clip-path="url(#p2b1a176a53)">
     <use xlink:href="#m4342ed174e" x="135.526568" y="96.056418" style="fill: #111827; stroke: #111827"/>
     <use xlink:href="#m4342ed174e" x="203.431733" y="230.779227" style="fill: #111827; stroke: #111827"/>
     <use xlink:href="#m4342ed174e" x="389.43849" y="336.595756" style="fill: #111827; stroke: #111827"/>
    </g>
   </g>
   <g id="line2d_35">
    <path d="M 224.202424 196.791833
L 292.103913 305.731947
L 478.11647 386.575558
" clip-path="url(#p2b1a176a53)" style="fill: none; stroke: #16a34a; stroke-width: 1.3; stroke-linecap: square"/>
    <defs>
     <path id="m1ad46457fb" d="M 0 3
C 0.795609 3 1.55874 2.683901 2.12132 2.12132
C 2.683901 1.55874 3 0.795609 3 0
C 3 -0.795609 2.683901 -1.55874 2.12132 -2.12132
C 1.55874 -2.683901 0.795609 -3 0 -3
C -0.795609 -3 -1.55874 -2.683901 -2.12132 -2.12132
C -2.683901 -1.55874 -3 -0.795609 -3 0
C -3 0.795609 -2.683901 1.55874 -2.12132 2.12132
C -1.55874 2.683901 -0.795609 3 0 3
z
" style="stroke: #16a34a"/>
    </defs>
    <g clip-path="url(#p2b1a176a53)">
     <use xlink:href="#m1ad46457fb" x="224.202424" y="196.791833" style="fill: #16a34a; stroke: #16a34a"/>
     <use xlink:href="#m1ad46457fb" x="292.103913" y="305.731947" style="fill: #16a34a; stroke: #16a34a"/>
     <use xlink:href="#m1ad46457fb" x="478.11647" y="386.575558" style="fill: #16a34a; stroke: #16a34a"/>
    </g>
   </g>
   <g id="patch_3">
    <path d="M 47.962344 402.515313
L 47.962344 51.840703
" style="fill: none; stroke: #000000; stroke-width: 0.8; stroke-linejoin: miter; stroke-linecap: square"/>
   </g>
   <g id="patch_4">
    <path d="M 498.6 402.515313
L 498.6 51.840703
" style="fill: none; stroke: #000000; stroke-width: 0.8; stroke-linejoin: miter; stroke-linecap: square"/>
   </g>
   <g id="patch_5">
    <path d="M 47.962344 402.515313
L 498.6 402.515313
" style="fill: none; stroke: #000000; stroke-width: 0.8; stroke-linejoin: miter; stroke-linecap: square"/>
   </g>
   <g id="patch_6">
    <path d="M 47.962344 51.840703
L 498.6 51.840703
" style="fill: none; stroke: #000000; stroke-width: 0.8; stroke-linejoin: miter; stroke-linecap: square"/>
   </g>
   <g id="text_11">
    <!-- Dense -->
    <g transform="translate(254.349297 45.840703) scale(0.12 -0.12)">
     <use xlink:href="#DejaVuSans-27"/>
     <use xlink:href="#DejaVuSans-48" transform="translate(77 0)"/>
     <use xlink:href="#DejaVuSans-51" transform="translate(138.53125 0)"/>
     <use xlink:href="#DejaVuSans-56" transform="translate(201.90625 0)"/>
     <use xlink:href="#DejaVuSans-48" transform="translate(254 0)"/>
    </g>
   </g>
   <g id="legend_1">
    <g id="text_12">
     <!-- Training ratio -->
     <g transform="translate(423.909375 68.439141) scale(0.1 -0.1)">
      <defs>
       <path id="DejaVuSans-37" d="M -19 4666
L 3928 4666
L 3928 4134
L 2272 4134
L 2272 0
L 1638 0
L 1638 4134
L -19 4134
L -19 4666
z
" transform="scale(0.015625)"/>
       <path id="DejaVuSans-55" d="M 2631 2963
Q 2534 3019 2420 3045
Q 2306 3072 2169 3072
Q 1681 3072 1420 2755
Q 1159 2438 1159 1844
L 1159 0
L 581 0
L 581 3500
L 1159 3500
L 1159 2956
Q 1341 3275 1631 3429
Q 1922 3584 2338 3584
Q 2397 3584 2469 3576
Q 2541 3569 2628 3553
L 2631 2963
z
" transform="scale(0.015625)"/>
       <path id="DejaVuSans-4a" d="M 2906 1791
Q 2906 2416 2648 2759
Q 2391 3103 1925 3103
Q 1463 3103 1205 2759
Q 947 2416 947 1791
Q 947 1169 1205 825
Q 1463 481 1925 481
Q 2391 481 2648 825
Q 2906 1169 2906 1791
z
M 3481 434
Q 3481 -459 3084 -895
Q 2688 -1331 1869 -1331
Q 1566 -1331 1297 -1286
Q 1028 -1241 775 -1147
L 775 -588
Q 1028 -725 1275 -790
Q 1522 -856 1778 -856
Q 2344 -856 2625 -561
Q 2906 -266 2906 331
L 2906 616
Q 2728 306 2450 153
Q 2172 0 1784 0
Q 1141 0 747 490
Q 353 981 353 1791
Q 353 2603 747 3093
Q 1141 3584 1784 3584
Q 2172 3584 2450 3431
Q 2728 3278 2906 2969
L 2906 3500
L 3481 3500
L 3481 434
z
" transform="scale(0.015625)"/>
      </defs>
      <use xlink:href="#DejaVuSans-37"/>
      <use xlink:href="#DejaVuSans-55" transform="translate(46.375 0)"/>
      <use xlink:href="#DejaVuSans-44" transform="translate(87.484375 0)"/>
      <use xlink:href="#DejaVuSans-4c" transform="translate(148.765625 0)"/>
      <use xlink:href="#DejaVuSans-51" transform="translate(176.546875 0)"/>
      <use xlink:href="#DejaVuSans-4c" transform="translate(239.921875 0)"/>
      <use xlink:href="#DejaVuSans-51" transform="translate(267.703125 0)"/>
      <use xlink:href="#DejaVuSans-4a" transform="translate(331.078125 0)"/>
      <use xlink:href="#DejaVuSans-3" transform="translate(394.5625 0)"/>
      <use xlink:href="#DejaVuSans-55" transform="translate(426.34375 0)"/>
      <use xlink:href="#DejaVuSans-44" transform="translate(467.453125 0)"/>
      <use xlink:href="#DejaVuSans-57" transform="translate(528.734375 0)"/>
      <use xlink:href="#DejaVuSans-4c" transform="translate(567.9375 0)"/>
      <use xlink:href="#DejaVuSans-52" transform="translate(595.71875 0)"/>
     </g>
    </g>
    <g id="line2d_36">
     <path d="M 431.84375 79.939922
L 441.84375 79.939922
L 451.84375 79.939922
" style="fill: none; stroke: #2563eb; stroke-width: 1.3; stroke-linecap: square"/>
     <g>
      <use xlink:href="#m4a444b24c8" x="441.84375" y="79.939922" style="fill: #2563eb; stroke: #2563eb"/>
     </g>
    </g>
    <g id="text_13">
     <!-- 0.1x -->
     <g transform="translate(459.84375 83.439922) scale(0.1 -0.1)">
      <defs>
       <path id="DejaVuSans-5b" d="M 3513 3500
L 2247 1797
L 3578 0
L 2900 0
L 1881 1375
L 863 0
L 184 0
L 1544 1831
L 300 3500
L 978 3500
L 1906 2253
L 2834 3500
L 3513 3500
z
" transform="scale(0.015625)"/>
      </defs>
      <use xlink:href="#DejaVuSans-13"/>
      <use xlink:href="#DejaVuSans-11" transform="translate(63.625 0)"/>
      <use xlink:href="#DejaVuSans-14" transform="translate(95.40625 0)"/>
      <use xlink:href="#DejaVuSans-5b" transform="translate(159.03125 0)"/>
     </g>
    </g>
    <g id="line2d_37">
     <path d="M 431.84375 94.940703
L 441.84375 94.940703
L 451.84375 94.940703
" style="fill: none; stroke: #111827; stroke-width: 1.3; stroke-linecap: square"/>
     <g>
      <use xlink:href="#m4342ed174e" x="441.84375" y="94.940703" style="fill: #111827; stroke: #111827"/>
     </g>
    </g>
    <g id="text_14">
     <!-- 0.2x -->
     <g transform="translate(459.84375 98.440703) scale(0.1 -0.1)">
      <use xlink:href="#DejaVuSans-13"/>
      <use xlink:href="#DejaVuSans-11" transform="translate(63.625 0)"/>
      <use xlink:href="#DejaVuSans-15" transform="translate(95.40625 0)"/>
      <use xlink:href="#DejaVuSans-5b" transform="translate(159.03125 0)"/>
     </g>
    </g>
    <g id="line2d_38">
     <path d="M 431.84375 109.941484
L 441.84375 109.941484
L 451.84375 109.941484
" style="fill: none; stroke: #16a34a; stroke-width: 1.3; stroke-linecap: square"/>
     <g>
      <use xlink:href="#m1ad46457fb" x="441.84375" y="109.941484" style="fill: #16a34a; stroke: #16a34a"/>
     </g>
    </g>
    <g id="text_15">
     <!-- 0.5x -->
     <g transform="translate(459.84375 113.441484) scale(0.1 -0.1)">
      <use xlink:href="#DejaVuSans-13"/>
      <use xlink:href="#DejaVuSans-11" transform="translate(63.625 0)"/>
      <use xlink:href="#DejaVuSans-18" transform="translate(95.40625 0)"/>
      <use xlink:href="#DejaVuSans-5b" transform="translate(159.03125 0)"/>
     </g>
    </g>
   </g>
  </g>
  <g id="axes_2">
   <g id="patch_7">
    <path d="M 546.562344 402.515313
L 997.2 402.515313
L 997.2 51.840703
L 546.562344 51.840703
z
" style="fill: #ffffff"/>
   </g>
   <g id="PathCollection_4">
    <defs>
     <path id="mb776637099" d="M -4.031129 4.031129
L 4.031129 -4.031129
M -4.031129 -4.031129
L 4.031129 4.031129
" style="stroke: #2563eb; stroke-width: 1.7"/>
    </defs>
    <g clip-path="url(#p7814055840)">
     <use xlink:href="#mb776637099" x="567.045874" y="67.780458" style="fill: #2563eb; stroke: #2563eb; stroke-width: 1.7"/>
    </g>
   </g>
   <g id="PathCollection_5"/>
   <g id="PathCollection_6"/>
   <g id="matplotlib.axis_3">
    <g id="xtick_19">
     <g id="line2d_39">
      <path d="M 591.336669 402.515313
L 591.336669 51.840703
" clip-path="url(#p7814055840)" style="fill: none; stroke: #b0b0b0; stroke-opacity: 0.2; stroke-width: 0.8; stroke-linecap: square"/>
     </g>
     <g id="line2d_40">
      <g>
       <use xlink:href="#mb81042d28d" x="591.336669" y="402.515313" style="stroke: #000000; stroke-width: 0.8"/>
      </g>
     </g>
     <g id="text_16">
      <!-- $\mathdefault{10^{-2}}$ -->
      <g transform="translate(579.586669 418.915313) scale(0.1 -0.1)">
       <use xlink:href="#DejaVuSans-14" transform="translate(0 0.746875)"/>
       <use xlink:href="#DejaVuSans-13" transform="translate(63.623047 0.746875)"/>
       <use xlink:href="#DejaVuSans-c9c" transform="translate(128.203125 42.046875) scale(0.7)"/>
       <use xlink:href="#DejaVuSans-15" transform="translate(186.855469 42.046875) scale(0.7)"/>
      </g>
     </g>
    </g>
    <g id="xtick_20">
     <g id="line2d_41">
      <path d="M 778.781503 402.515313
L 778.781503 51.840703
" clip-path="url(#p7814055840)" style="fill: none; stroke: #b0b0b0; stroke-opacity: 0.2; stroke-width: 0.8; stroke-linecap: square"/>
     </g>
     <g id="line2d_42">
      <g>
       <use xlink:href="#mb81042d28d" x="778.781503" y="402.515313" style="stroke: #000000; stroke-width: 0.8"/>
      </g>
     </g>
     <g id="text_17">
      <!-- $\mathdefault{10^{-1}}$ -->
      <g transform="translate(767.031503 418.815313) scale(0.1 -0.1)">
       <use xlink:href="#DejaVuSans-14" transform="translate(0 0.665625)"/>
       <use xlink:href="#DejaVuSans-13" transform="translate(63.623047 0.665625)"/>
       <use xlink:href="#DejaVuSans-c9c" transform="translate(128.203125 41.965625) scale(0.7)"/>
       <use xlink:href="#DejaVuSans-14" transform="translate(186.855469 41.965625) scale(0.7)"/>
      </g>
     </g>
    </g>
    <g id="xtick_21">
     <g id="line2d_43">
      <path d="M 966.226336 402.515313
L 966.226336 51.840703
" clip-path="url(#p7814055840)" style="fill: none; stroke: #b0b0b0; stroke-opacity: 0.2; stroke-width: 0.8; stroke-linecap: square"/>
     </g>
     <g id="line2d_44">
      <g>
       <use xlink:href="#mb81042d28d" x="966.226336" y="402.515313" style="stroke: #000000; stroke-width: 0.8"/>
      </g>
     </g>
     <g id="text_18">
      <!-- $\mathdefault{10^{0}}$ -->
      <g transform="translate(957.426336 418.915313) scale(0.1 -0.1)">
       <use xlink:href="#DejaVuSans-14" transform="translate(0 0.746875)"/>
       <use xlink:href="#DejaVuSans-13" transform="translate(63.623047 0.746875)"/>
       <use xlink:href="#DejaVuSans-13" transform="translate(128.203125 42.046875) scale(0.7)"/>
      </g>
     </g>
    </g>
    <g id="xtick_22">
     <g id="line2d_45">
      <g>
       <use xlink:href="#m4a8172843e" x="549.752267" y="402.515313" style="stroke: #000000; stroke-width: 0.6"/>
      </g>
     </g>
    </g>
    <g id="xtick_23">
     <g id="line2d_46">
      <g>
       <use xlink:href="#m4a8172843e" x="562.301097" y="402.515313" style="stroke: #000000; stroke-width: 0.6"/>
      </g>
     </g>
    </g>
    <g id="xtick_24">
     <g id="line2d_47">
      <g>
       <use xlink:href="#m4a8172843e" x="573.171388" y="402.515313" style="stroke: #000000; stroke-width: 0.6"/>
      </g>
     </g>
    </g>
    <g id="xtick_25">
     <g id="line2d_48">
      <g>
       <use xlink:href="#m4a8172843e" x="582.759664" y="402.515313" style="stroke: #000000; stroke-width: 0.6"/>
      </g>
     </g>
    </g>
    <g id="xtick_26">
     <g id="line2d_49">
      <g>
       <use xlink:href="#m4a8172843e" x="647.763187" y="402.515313" style="stroke: #000000; stroke-width: 0.6"/>
      </g>
     </g>
    </g>
    <g id="xtick_27">
     <g id="line2d_50">
      <g>
       <use xlink:href="#m4a8172843e" x="680.770583" y="402.515313" style="stroke: #000000; stroke-width: 0.6"/>
      </g>
     </g>
    </g>
    <g id="xtick_28">
     <g id="line2d_51">
      <g>
       <use xlink:href="#m4a8172843e" x="704.189704" y="402.515313" style="stroke: #000000; stroke-width: 0.6"/>
      </g>
     </g>
    </g>
    <g id="xtick_29">
     <g id="line2d_52">
      <g>
       <use xlink:href="#m4a8172843e" x="722.354985" y="402.515313" style="stroke: #000000; stroke-width: 0.6"/>
      </g>
     </g>
    </g>
    <g id="xtick_30">
     <g id="line2d_53">
      <g>
       <use xlink:href="#m4a8172843e" x="737.197101" y="402.515313" style="stroke: #000000; stroke-width: 0.6"/>
      </g>
     </g>
    </g>
    <g id="xtick_31">
     <g id="line2d_54">
      <g>
       <use xlink:href="#m4a8172843e" x="749.745931" y="402.515313" style="stroke: #000000; stroke-width: 0.6"/>
      </g>
     </g>
    </g>
    <g id="xtick_32">
     <g id="line2d_55">
      <g>
       <use xlink:href="#m4a8172843e" x="760.616221" y="402.515313" style="stroke: #000000; stroke-width: 0.6"/>
      </g>
     </g>
    </g>
    <g id="xtick_33">
     <g id="line2d_56">
      <g>
       <use xlink:href="#m4a8172843e" x="770.204497" y="402.515313" style="stroke: #000000; stroke-width: 0.6"/>
      </g>
     </g>
    </g>
    <g id="xtick_34">
     <g id="line2d_57">
      <g>
       <use xlink:href="#m4a8172843e" x="835.20802" y="402.515313" style="stroke: #000000; stroke-width: 0.6"/>
      </g>
     </g>
    </g>
    <g id="xtick_35">
     <g id="line2d_58">
      <g>
       <use xlink:href="#m4a8172843e" x="868.215417" y="402.515313" style="stroke: #000000; stroke-width: 0.6"/>
      </g>
     </g>
    </g>
    <g id="xtick_36">
     <g id="line2d_59">
      <g>
       <use xlink:href="#m4a8172843e" x="891.634537" y="402.515313" style="stroke: #000000; stroke-width: 0.6"/>
      </g>
     </g>
    </g>
    <g id="xtick_37">
     <g id="line2d_60">
      <g>
       <use xlink:href="#m4a8172843e" x="909.799819" y="402.515313" style="stroke: #000000; stroke-width: 0.6"/>
      </g>
     </g>
    </g>
    <g id="xtick_38">
     <g id="line2d_61">
      <g>
       <use xlink:href="#m4a8172843e" x="924.641934" y="402.515313" style="stroke: #000000; stroke-width: 0.6"/>
      </g>
     </g>
    </g>
    <g id="xtick_39">
     <g id="line2d_62">
      <g>
       <use xlink:href="#m4a8172843e" x="937.190764" y="402.515313" style="stroke: #000000; stroke-width: 0.6"/>
      </g>
     </g>
    </g>
    <g id="xtick_40">
     <g id="line2d_63">
      <g>
       <use xlink:href="#m4a8172843e" x="948.061055" y="402.515313" style="stroke: #000000; stroke-width: 0.6"/>
      </g>
     </g>
    </g>
    <g id="xtick_41">
     <g id="line2d_64">
      <g>
       <use xlink:href="#m4a8172843e" x="957.649331" y="402.515313" style="stroke: #000000; stroke-width: 0.6"/>
      </g>
     </g>
    </g>
    <g id="text_19">
     <!-- Steady-state Modal GPU cost (USD) -->
     <g transform="translate(683.226484 432.916094) scale(0.1 -0.1)">
      <use xlink:href="#DejaVuSans-36"/>
      <use xlink:href="#DejaVuSans-57" transform="translate(63.484375 0)"/>
      <use xlink:href="#DejaVuSans-48" transform="translate(102.6875 0)"/>
      <use xlink:href="#DejaVuSans-44" transform="translate(164.21875 0)"/>
      <use xlink:href="#DejaVuSans-47" transform="translate(225.5 0)"/>
      <use xlink:href="#DejaVuSans-5c" transform="translate(288.984375 0)"/>
      <use xlink:href="#DejaVuSans-10" transform="translate(346.421875 0)"/>
      <use xlink:href="#DejaVuSans-56" transform="translate(382.5 0)"/>
      <use xlink:href="#DejaVuSans-57" transform="translate(434.59375 0)"/>
      <use xlink:href="#DejaVuSans-44" transform="translate(473.796875 0)"/>
      <use xlink:href="#DejaVuSans-57" transform="translate(535.078125 0)"/>
      <use xlink:href="#DejaVuSans-48" transform="translate(574.28125 0)"/>
      <use xlink:href="#DejaVuSans-3" transform="translate(635.8125 0)"/>
      <use xlink:href="#DejaVuSans-30" transform="translate(667.59375 0)"/>
      <use xlink:href="#DejaVuSans-52" transform="translate(753.875 0)"/>
      <use xlink:href="#DejaVuSans-47" transform="translate(815.0625 0)"/>
      <use xlink:href="#DejaVuSans-44" transform="translate(878.546875 0)"/>
      <use xlink:href="#DejaVuSans-4f" transform="translate(939.828125 0)"/>
      <use xlink:href="#DejaVuSans-3" transform="translate(967.609375 0)"/>
      <use xlink:href="#DejaVuSans-2a" transform="translate(999.390625 0)"/>
      <use xlink:href="#DejaVuSans-33" transform="translate(1076.875 0)"/>
      <use xlink:href="#DejaVuSans-38" transform="translate(1137.171875 0)"/>
      <use xlink:href="#DejaVuSans-3" transform="translate(1210.359375 0)"/>
      <use xlink:href="#DejaVuSans-46" transform="translate(1242.140625 0)"/>
      <use xlink:href="#DejaVuSans-52" transform="translate(1297.125 0)"/>
      <use xlink:href="#DejaVuSans-56" transform="translate(1358.3125 0)"/>
      <use xlink:href="#DejaVuSans-57" transform="translate(1410.40625 0)"/>
      <use xlink:href="#DejaVuSans-3" transform="translate(1449.609375 0)"/>
      <use xlink:href="#DejaVuSans-b" transform="translate(1481.390625 0)"/>
      <use xlink:href="#DejaVuSans-38" transform="translate(1520.40625 0)"/>
      <use xlink:href="#DejaVuSans-36" transform="translate(1593.59375 0)"/>
      <use xlink:href="#DejaVuSans-27" transform="translate(1657.078125 0)"/>
      <use xlink:href="#DejaVuSans-c" transform="translate(1734.078125 0)"/>
     </g>
    </g>
   </g>
   <g id="matplotlib.axis_4">
    <g id="ytick_7">
     <g id="line2d_65">
      <path d="M 546.562344 370.27434
L 997.2 370.27434
" clip-path="url(#p7814055840)" style="fill: none; stroke: #b0b0b0; stroke-opacity: 0.2; stroke-width: 0.8; stroke-linecap: square"/>
     </g>
     <g id="line2d_66">
      <g>
       <use xlink:href="#me0683364ff" x="546.562344" y="370.27434" style="stroke: #000000; stroke-width: 0.8"/>
      </g>
     </g>
     <g id="text_20">
      <!-- 2.9 -->
      <g transform="translate(523.659219 374.073168) scale(0.1 -0.1)">
       <defs>
        <path id="DejaVuSans-1c" d="M 703 97
L 703 672
Q 941 559 1184 500
Q 1428 441 1663 441
Q 2288 441 2617 861
Q 2947 1281 2994 2138
Q 2813 1869 2534 1725
Q 2256 1581 1919 1581
Q 1219 1581 811 2004
Q 403 2428 403 3163
Q 403 3881 828 4315
Q 1253 4750 1959 4750
Q 2769 4750 3195 4129
Q 3622 3509 3622 2328
Q 3622 1225 3098 567
Q 2575 -91 1691 -91
Q 1453 -91 1209 -44
Q 966 3 703 97
z
M 1959 2075
Q 2384 2075 2632 2365
Q 2881 2656 2881 3163
Q 2881 3666 2632 3958
Q 2384 4250 1959 4250
Q 1534 4250 1286 3958
Q 1038 3666 1038 3163
Q 1038 2656 1286 2365
Q 1534 2075 1959 2075
z
" transform="scale(0.015625)"/>
       </defs>
       <use xlink:href="#DejaVuSans-15"/>
       <use xlink:href="#DejaVuSans-11" transform="translate(63.625 0)"/>
       <use xlink:href="#DejaVuSans-1c" transform="translate(95.40625 0)"/>
      </g>
     </g>
    </g>
    <g id="ytick_8">
     <g id="line2d_67">
      <path d="M 546.562344 331.047017
L 997.2 331.047017
" clip-path="url(#p7814055840)" style="fill: none; stroke: #b0b0b0; stroke-opacity: 0.2; stroke-width: 0.8; stroke-linecap: square"/>
     </g>
     <g id="line2d_68">
      <g>
       <use xlink:href="#me0683364ff" x="546.562344" y="331.047017" style="stroke: #000000; stroke-width: 0.8"/>
      </g>
     </g>
     <g id="text_21">
      <!-- 3.0 -->
      <g transform="translate(523.659219 334.845845) scale(0.1 -0.1)">
       <use xlink:href="#DejaVuSans-16"/>
       <use xlink:href="#DejaVuSans-11" transform="translate(63.625 0)"/>
       <use xlink:href="#DejaVuSans-13" transform="translate(95.40625 0)"/>
      </g>
     </g>
    </g>
    <g id="ytick_9">
     <g id="line2d_69">
      <path d="M 546.562344 291.819695
L 997.2 291.819695
" clip-path="url(#p7814055840)" style="fill: none; stroke: #b0b0b0; stroke-opacity: 0.2; stroke-width: 0.8; stroke-linecap: square"/>
     </g>
     <g id="line2d_70">
      <g>
       <use xlink:href="#me0683364ff" x="546.562344" y="291.819695" style="stroke: #000000; stroke-width: 0.8"/>
      </g>
     </g>
     <g id="text_22">
      <!-- 3.1 -->
      <g transform="translate(523.659219 295.618523) scale(0.1 -0.1)">
       <use xlink:href="#DejaVuSans-16"/>
       <use xlink:href="#DejaVuSans-11" transform="translate(63.625 0)"/>
       <use xlink:href="#DejaVuSans-14" transform="translate(95.40625 0)"/>
      </g>
     </g>
    </g>
    <g id="ytick_10">
     <g id="line2d_71">
      <path d="M 546.562344 252.592373
L 997.2 252.592373
" clip-path="url(#p7814055840)" style="fill: none; stroke: #b0b0b0; stroke-opacity: 0.2; stroke-width: 0.8; stroke-linecap: square"/>
     </g>
     <g id="line2d_72">
      <g>
       <use xlink:href="#me0683364ff" x="546.562344" y="252.592373" style="stroke: #000000; stroke-width: 0.8"/>
      </g>
     </g>
     <g id="text_23">
      <!-- 3.2 -->
      <g transform="translate(523.659219 256.391201) scale(0.1 -0.1)">
       <use xlink:href="#DejaVuSans-16"/>
       <use xlink:href="#DejaVuSans-11" transform="translate(63.625 0)"/>
       <use xlink:href="#DejaVuSans-15" transform="translate(95.40625 0)"/>
      </g>
     </g>
    </g>
    <g id="ytick_11">
     <g id="line2d_73">
      <path d="M 546.562344 213.36505
L 997.2 213.36505
" clip-path="url(#p7814055840)" style="fill: none; stroke: #b0b0b0; stroke-opacity: 0.2; stroke-width: 0.8; stroke-linecap: square"/>
     </g>
     <g id="line2d_74">
      <g>
       <use xlink:href="#me0683364ff" x="546.562344" y="213.36505" style="stroke: #000000; stroke-width: 0.8"/>
      </g>
     </g>
     <g id="text_24">
      <!-- 3.3 -->
      <g transform="translate(523.659219 217.163879) scale(0.1 -0.1)">
       <use xlink:href="#DejaVuSans-16"/>
       <use xlink:href="#DejaVuSans-11" transform="translate(63.625 0)"/>
       <use xlink:href="#DejaVuSans-16" transform="translate(95.40625 0)"/>
      </g>
     </g>
    </g>
    <g id="ytick_12">
     <g id="line2d_75">
      <path d="M 546.562344 174.137728
L 997.2 174.137728
" clip-path="url(#p7814055840)" style="fill: none; stroke: #b0b0b0; stroke-opacity: 0.2; stroke-width: 0.8; stroke-linecap: square"/>
     </g>
     <g id="line2d_76">
      <g>
       <use xlink:href="#me0683364ff" x="546.562344" y="174.137728" style="stroke: #000000; stroke-width: 0.8"/>
      </g>
     </g>
     <g id="text_25">
      <!-- 3.4 -->
      <g transform="translate(523.659219 177.936556) scale(0.1 -0.1)">
       <use xlink:href="#DejaVuSans-16"/>
       <use xlink:href="#DejaVuSans-11" transform="translate(63.625 0)"/>
       <use xlink:href="#DejaVuSans-17" transform="translate(95.40625 0)"/>
      </g>
     </g>
    </g>
    <g id="ytick_13">
     <g id="line2d_77">
      <path d="M 546.562344 134.910406
L 997.2 134.910406
" clip-path="url(#p7814055840)" style="fill: none; stroke: #b0b0b0; stroke-opacity: 0.2; stroke-width: 0.8; stroke-linecap: square"/>
     </g>
     <g id="line2d_78">
      <g>
       <use xlink:href="#me0683364ff" x="546.562344" y="134.910406" style="stroke: #000000; stroke-width: 0.8"/>
      </g>
     </g>
     <g id="text_26">
      <!-- 3.5 -->
      <g transform="translate(523.659219 138.709234) scale(0.1 -0.1)">
       <use xlink:href="#DejaVuSans-16"/>
       <use xlink:href="#DejaVuSans-11" transform="translate(63.625 0)"/>
       <use xlink:href="#DejaVuSans-18" transform="translate(95.40625 0)"/>
      </g>
     </g>
    </g>
    <g id="ytick_14">
     <g id="line2d_79">
      <path d="M 546.562344 95.683083
L 997.2 95.683083
" clip-path="url(#p7814055840)" style="fill: none; stroke: #b0b0b0; stroke-opacity: 0.2; stroke-width: 0.8; stroke-linecap: square"/>
     </g>
     <g id="line2d_80">
      <g>
       <use xlink:href="#me0683364ff" x="546.562344" y="95.683083" style="stroke: #000000; stroke-width: 0.8"/>
      </g>
     </g>
     <g id="text_27">
      <!-- 3.6 -->
      <g transform="translate(523.659219 99.481912) scale(0.1 -0.1)">
       <defs>
        <path id="DejaVuSans-19" d="M 2113 2584
Q 1688 2584 1439 2293
Q 1191 2003 1191 1497
Q 1191 994 1439 701
Q 1688 409 2113 409
Q 2538 409 2786 701
Q 3034 994 3034 1497
Q 3034 2003 2786 2293
Q 2538 2584 2113 2584
z
M 3366 4563
L 3366 3988
Q 3128 4100 2886 4159
Q 2644 4219 2406 4219
Q 1781 4219 1451 3797
Q 1122 3375 1075 2522
Q 1259 2794 1537 2939
Q 1816 3084 2150 3084
Q 2853 3084 3261 2657
Q 3669 2231 3669 1497
Q 3669 778 3244 343
Q 2819 -91 2113 -91
Q 1303 -91 875 529
Q 447 1150 447 2328
Q 447 3434 972 4092
Q 1497 4750 2381 4750
Q 2619 4750 2861 4703
Q 3103 4656 3366 4563
z
" transform="scale(0.015625)"/>
       </defs>
       <use xlink:href="#DejaVuSans-16"/>
       <use xlink:href="#DejaVuSans-11" transform="translate(63.625 0)"/>
       <use xlink:href="#DejaVuSans-19" transform="translate(95.40625 0)"/>
      </g>
     </g>
    </g>
    <g id="ytick_15">
     <g id="line2d_81">
      <path d="M 546.562344 56.455761
L 997.2 56.455761
" clip-path="url(#p7814055840)" style="fill: none; stroke: #b0b0b0; stroke-opacity: 0.2; stroke-width: 0.8; stroke-linecap: square"/>
     </g>
     <g id="line2d_82">
      <g>
       <use xlink:href="#me0683364ff" x="546.562344" y="56.455761" style="stroke: #000000; stroke-width: 0.8"/>
      </g>
     </g>
     <g id="text_28">
      <!-- 3.7 -->
      <g transform="translate(523.659219 60.254589) scale(0.1 -0.1)">
       <defs>
        <path id="DejaVuSans-1a" d="M 525 4666
L 3525 4666
L 3525 4397
L 1831 0
L 1172 0
L 2766 4134
L 525 4134
L 525 4666
z
" transform="scale(0.015625)"/>
       </defs>
       <use xlink:href="#DejaVuSans-16"/>
       <use xlink:href="#DejaVuSans-11" transform="translate(63.625 0)"/>
       <use xlink:href="#DejaVuSans-1a" transform="translate(95.40625 0)"/>
      </g>
     </g>
    </g>
    <g id="text_29">
     <!-- Final loss -->
     <g transform="translate(517.256875 249.947539) rotate(-90) scale(0.1 -0.1)">
      <use xlink:href="#DejaVuSans-29"/>
      <use xlink:href="#DejaVuSans-4c" transform="translate(50.234375 0)"/>
      <use xlink:href="#DejaVuSans-51" transform="translate(78.015625 0)"/>
      <use xlink:href="#DejaVuSans-44" transform="translate(141.390625 0)"/>
      <use xlink:href="#DejaVuSans-4f" transform="translate(202.671875 0)"/>
      <use xlink:href="#DejaVuSans-3" transform="translate(230.453125 0)"/>
      <use xlink:href="#DejaVuSans-4f" transform="translate(262.234375 0)"/>
      <use xlink:href="#DejaVuSans-52" transform="translate(290.015625 0)"/>
      <use xlink:href="#DejaVuSans-56" transform="translate(351.203125 0)"/>
      <use xlink:href="#DejaVuSans-56" transform="translate(403.296875 0)"/>
     </g>
    </g>
   </g>
   <g id="line2d_83">
    <path d="M 711.21315 203.593559
L 845.708315 296.006557
" clip-path="url(#p7814055840)" style="fill: none; stroke: #2563eb; stroke-width: 1.3; stroke-linecap: square"/>
    <g clip-path="url(#p7814055840)">
     <use xlink:href="#m4a444b24c8" x="711.21315" y="203.593559" style="fill: #2563eb; stroke: #2563eb"/>
     <use xlink:href="#m4a444b24c8" x="845.708315" y="296.006557" style="fill: #2563eb; stroke: #2563eb"/>
    </g>
   </g>
   <g id="line2d_84">
    <path d="M 623.423277 149.495452
L 767.614554 260.958731
L 902.122131 340.764736
" clip-path="url(#p7814055840)" style="fill: none; stroke: #111827; stroke-width: 1.3; stroke-linecap: square"/>
    <g clip-path="url(#p7814055840)">
     <use xlink:href="#m4342ed174e" x="623.423277" y="149.495452" style="fill: #111827; stroke: #111827"/>
     <use xlink:href="#m4342ed174e" x="767.614554" y="260.958731" style="fill: #111827; stroke: #111827"/>
     <use xlink:href="#m4342ed174e" x="902.122131" y="340.764736" style="fill: #111827; stroke: #111827"/>
    </g>
   </g>
   <g id="line2d_85">
    <path d="M 698.044548 210.296245
L 842.211376 315.853972
L 976.71647 386.575558
" clip-path="url(#p7814055840)" style="fill: none; stroke: #16a34a; stroke-width: 1.3; stroke-linecap: square"/>
    <g clip-path="url(#p7814055840)">
     <use xlink:href="#m1ad46457fb" x="698.044548" y="210.296245" style="fill: #16a34a; stroke: #16a34a"/>
     <use xlink:href="#m1ad46457fb" x="842.211376" y="315.853972" style="fill: #16a34a; stroke: #16a34a"/>
     <use xlink:href="#m1ad46457fb" x="976.71647" y="386.575558" style="fill: #16a34a; stroke: #16a34a"/>
    </g>
   </g>
   <g id="patch_8">
    <path d="M 546.562344 402.515313
L 546.562344 51.840703
" style="fill: none; stroke: #000000; stroke-width: 0.8; stroke-linejoin: miter; stroke-linecap: square"/>
   </g>
   <g id="patch_9">
    <path d="M 997.2 402.515313
L 997.2 51.840703
" style="fill: none; stroke: #000000; stroke-width: 0.8; stroke-linejoin: miter; stroke-linecap: square"/>
   </g>
   <g id="patch_10">
    <path d="M 546.562344 402.515313
L 997.2 402.515313
" style="fill: none; stroke: #000000; stroke-width: 0.8; stroke-linejoin: miter; stroke-linecap: square"/>
   </g>
   <g id="patch_11">
    <path d="M 546.562344 51.840703
L 997.2 51.840703
" style="fill: none; stroke: #000000; stroke-width: 0.8; stroke-linejoin: miter; stroke-linecap: square"/>
   </g>
   <g id="text_30">
    <!-- MoE 64A2 -->
    <g transform="translate(741.778047 45.840703) scale(0.12 -0.12)">
     <defs>
      <path id="DejaVuSans-28" d="M 628 4666
L 3578 4666
L 3578 4134
L 1259 4134
L 1259 2753
L 3481 2753
L 3481 2222
L 1259 2222
L 1259 531
L 3634 531
L 3634 0
L 628 0
L 628 4666
z
" transform="scale(0.015625)"/>
      <path id="DejaVuSans-24" d="M 2188 4044
L 1331 1722
L 3047 1722
L 2188 4044
z
M 1831 4666
L 2547 4666
L 4325 0
L 3669 0
L 3244 1197
L 1141 1197
L 716 0
L 50 0
L 1831 4666
z
" transform="scale(0.015625)"/>
     </defs>
     <use xlink:href="#DejaVuSans-30"/>
     <use xlink:href="#DejaVuSans-52" transform="translate(86.28125 0)"/>
     <use xlink:href="#DejaVuSans-28" transform="translate(147.46875 0)"/>
     <use xlink:href="#DejaVuSans-3" transform="translate(210.65625 0)"/>
     <use xlink:href="#DejaVuSans-19" transform="translate(242.4375 0)"/>
     <use xlink:href="#DejaVuSans-17" transform="translate(306.0625 0)"/>
     <use xlink:href="#DejaVuSans-24" transform="translate(369.6875 0)"/>
     <use xlink:href="#DejaVuSans-15" transform="translate(438.09375 0)"/>
    </g>
   </g>
   <g id="legend_2">
    <g id="text_31">
     <!-- Training ratio -->
     <g transform="translate(922.509375 68.439141) scale(0.1 -0.1)">
      <use xlink:href="#DejaVuSans-37"/>
      <use xlink:href="#DejaVuSans-55" transform="translate(46.375 0)"/>
      <use xlink:href="#DejaVuSans-44" transform="translate(87.484375 0)"/>
      <use xlink:href="#DejaVuSans-4c" transform="translate(148.765625 0)"/>
      <use xlink:href="#DejaVuSans-51" transform="translate(176.546875 0)"/>
      <use xlink:href="#DejaVuSans-4c" transform="translate(239.921875 0)"/>
      <use xlink:href="#DejaVuSans-51" transform="translate(267.703125 0)"/>
      <use xlink:href="#DejaVuSans-4a" transform="translate(331.078125 0)"/>
      <use xlink:href="#DejaVuSans-3" transform="translate(394.5625 0)"/>
      <use xlink:href="#DejaVuSans-55" transform="translate(426.34375 0)"/>
      <use xlink:href="#DejaVuSans-44" transform="translate(467.453125 0)"/>
      <use xlink:href="#DejaVuSans-57" transform="translate(528.734375 0)"/>
      <use xlink:href="#DejaVuSans-4c" transform="translate(567.9375 0)"/>
      <use xlink:href="#DejaVuSans-52" transform="translate(595.71875 0)"/>
     </g>
    </g>
    <g id="line2d_86">
     <path d="M 927.2625 79.939922
L 937.2625 79.939922
L 947.2625 79.939922
" style="fill: none; stroke: #2563eb; stroke-width: 1.3; stroke-linecap: square"/>
     <g>
      <use xlink:href="#m4a444b24c8" x="937.2625" y="79.939922" style="fill: #2563eb; stroke: #2563eb"/>
     </g>
    </g>
    <g id="text_32">
     <!-- 0.01x -->
     <g transform="translate(955.2625 83.439922) scale(0.1 -0.1)">
      <use xlink:href="#DejaVuSans-13"/>
      <use xlink:href="#DejaVuSans-11" transform="translate(63.625 0)"/>
      <use xlink:href="#DejaVuSans-13" transform="translate(95.40625 0)"/>
      <use xlink:href="#DejaVuSans-14" transform="translate(159.03125 0)"/>
      <use xlink:href="#DejaVuSans-5b" transform="translate(222.65625 0)"/>
     </g>
    </g>
    <g id="line2d_87">
     <path d="M 927.2625 94.940703
L 937.2625 94.940703
L 947.2625 94.940703
" style="fill: none; stroke: #111827; stroke-width: 1.3; stroke-linecap: square"/>
     <g>
      <use xlink:href="#m4342ed174e" x="937.2625" y="94.940703" style="fill: #111827; stroke: #111827"/>
     </g>
    </g>
    <g id="text_33">
     <!-- 0.02x -->
     <g transform="translate(955.2625 98.440703) scale(0.1 -0.1)">
      <use xlink:href="#DejaVuSans-13"/>
      <use xlink:href="#DejaVuSans-11" transform="translate(63.625 0)"/>
      <use xlink:href="#DejaVuSans-13" transform="translate(95.40625 0)"/>
      <use xlink:href="#DejaVuSans-15" transform="translate(159.03125 0)"/>
      <use xlink:href="#DejaVuSans-5b" transform="translate(222.65625 0)"/>
     </g>
    </g>
    <g id="line2d_88">
     <path d="M 927.2625 109.941484
L 937.2625 109.941484
L 947.2625 109.941484
" style="fill: none; stroke: #16a34a; stroke-width: 1.3; stroke-linecap: square"/>
     <g>
      <use xlink:href="#m1ad46457fb" x="937.2625" y="109.941484" style="fill: #16a34a; stroke: #16a34a"/>
     </g>
    </g>
    <g id="text_34">
     <!-- 0.05x -->
     <g transform="translate(955.2625 113.441484) scale(0.1 -0.1)">
      <use xlink:href="#DejaVuSans-13"/>
      <use xlink:href="#DejaVuSans-11" transform="translate(63.625 0)"/>
      <use xlink:href="#DejaVuSans-13" transform="translate(95.40625 0)"/>
      <use xlink:href="#DejaVuSans-18" transform="translate(159.03125 0)"/>
      <use xlink:href="#DejaVuSans-5b" transform="translate(222.65625 0)"/>
     </g>
    </g>
   </g>
  </g>
  <g id="text_35">
   <!-- Final loss by training cost -->
   <g transform="translate(394.801172 20.325656) scale(0.15 -0.15)">
    <defs>
     <path id="DejaVuSans-Bold-29" d="M 588 4666
L 3834 4666
L 3834 3756
L 1791 3756
L 1791 2888
L 3713 2888
L 3713 1978
L 1791 1978
L 1791 0
L 588 0
L 588 4666
z
" transform="scale(0.015625)"/>
     <path id="DejaVuSans-Bold-4c" d="M 538 3500
L 1656 3500
L 1656 0
L 538 0
L 538 3500
z
M 538 4863
L 1656 4863
L 1656 3950
L 538 3950
L 538 4863
z
" transform="scale(0.015625)"/>
     <path id="DejaVuSans-Bold-51" d="M 4056 2131
L 4056 0
L 2931 0
L 2931 347
L 2931 1631
Q 2931 2084 2911 2256
Q 2891 2428 2841 2509
Q 2775 2619 2662 2680
Q 2550 2741 2406 2741
Q 2056 2741 1856 2470
Q 1656 2200 1656 1722
L 1656 0
L 538 0
L 538 3500
L 1656 3500
L 1656 2988
Q 1909 3294 2193 3439
Q 2478 3584 2822 3584
Q 3428 3584 3742 3212
Q 4056 2841 4056 2131
z
" transform="scale(0.015625)"/>
     <path id="DejaVuSans-Bold-44" d="M 2106 1575
Q 1756 1575 1579 1456
Q 1403 1338 1403 1106
Q 1403 894 1545 773
Q 1688 653 1941 653
Q 2256 653 2472 879
Q 2688 1106 2688 1447
L 2688 1575
L 2106 1575
z
M 3816 1997
L 3816 0
L 2688 0
L 2688 519
Q 2463 200 2181 54
Q 1900 -91 1497 -91
Q 953 -91 614 226
Q 275 544 275 1050
Q 275 1666 698 1953
Q 1122 2241 2028 2241
L 2688 2241
L 2688 2328
Q 2688 2594 2478 2717
Q 2269 2841 1825 2841
Q 1466 2841 1156 2769
Q 847 2697 581 2553
L 581 3406
Q 941 3494 1303 3539
Q 1666 3584 2028 3584
Q 2975 3584 3395 3211
Q 3816 2838 3816 1997
z
" transform="scale(0.015625)"/>
     <path id="DejaVuSans-Bold-4f" d="M 538 4863
L 1656 4863
L 1656 0
L 538 0
L 538 4863
z
" transform="scale(0.015625)"/>
     <path id="DejaVuSans-Bold-3" transform="scale(0.015625)"/>
     <path id="DejaVuSans-Bold-52" d="M 2203 2784
Q 1831 2784 1636 2517
Q 1441 2250 1441 1747
Q 1441 1244 1636 976
Q 1831 709 2203 709
Q 2569 709 2762 976
Q 2956 1244 2956 1747
Q 2956 2250 2762 2517
Q 2569 2784 2203 2784
z
M 2203 3584
Q 3106 3584 3614 3096
Q 4122 2609 4122 1747
Q 4122 884 3614 396
Q 3106 -91 2203 -91
Q 1297 -91 786 396
Q 275 884 275 1747
Q 275 2609 786 3096
Q 1297 3584 2203 3584
z
" transform="scale(0.015625)"/>
     <path id="DejaVuSans-Bold-56" d="M 3272 3391
L 3272 2541
Q 2913 2691 2578 2766
Q 2244 2841 1947 2841
Q 1628 2841 1473 2761
Q 1319 2681 1319 2516
Q 1319 2381 1436 2309
Q 1553 2238 1856 2203
L 2053 2175
Q 2913 2066 3209 1816
Q 3506 1566 3506 1031
Q 3506 472 3093 190
Q 2681 -91 1863 -91
Q 1516 -91 1145 -36
Q 775 19 384 128
L 384 978
Q 719 816 1070 734
Q 1422 653 1784 653
Q 2113 653 2278 743
Q 2444 834 2444 1013
Q 2444 1163 2330 1236
Q 2216 1309 1875 1350
L 1678 1375
Q 931 1469 631 1722
Q 331 1975 331 2491
Q 331 3047 712 3315
Q 1094 3584 1881 3584
Q 2191 3584 2531 3537
Q 2872 3491 3272 3391
z
" transform="scale(0.015625)"/>
     <path id="DejaVuSans-Bold-45" d="M 2400 722
Q 2759 722 2948 984
Q 3138 1247 3138 1747
Q 3138 2247 2948 2509
Q 2759 2772 2400 2772
Q 2041 2772 1848 2508
Q 1656 2244 1656 1747
Q 1656 1250 1848 986
Q 2041 722 2400 722
z
M 1656 2988
Q 1888 3294 2169 3439
Q 2450 3584 2816 3584
Q 3463 3584 3878 3070
Q 4294 2556 4294 1747
Q 4294 938 3878 423
Q 3463 -91 2816 -91
Q 2450 -91 2169 54
Q 1888 200 1656 506
L 1656 0
L 538 0
L 538 4863
L 1656 4863
L 1656 2988
z
" transform="scale(0.015625)"/>
     <path id="DejaVuSans-Bold-5c" d="M 78 3500
L 1197 3500
L 2138 1125
L 2938 3500
L 4056 3500
L 2584 -331
Q 2363 -916 2067 -1148
Q 1772 -1381 1288 -1381
L 641 -1381
L 641 -647
L 991 -647
Q 1275 -647 1404 -556
Q 1534 -466 1606 -231
L 1638 -134
L 78 3500
z
" transform="scale(0.015625)"/>
     <path id="DejaVuSans-Bold-57" d="M 1759 4494
L 1759 3500
L 2913 3500
L 2913 2700
L 1759 2700
L 1759 1216
Q 1759 972 1856 886
Q 1953 800 2241 800
L 2816 800
L 2816 0
L 1856 0
Q 1194 0 917 276
Q 641 553 641 1216
L 641 2700
L 84 2700
L 84 3500
L 641 3500
L 641 4494
L 1759 4494
z
" transform="scale(0.015625)"/>
     <path id="DejaVuSans-Bold-55" d="M 3138 2547
Q 2991 2616 2845 2648
Q 2700 2681 2553 2681
Q 2122 2681 1889 2404
Q 1656 2128 1656 1613
L 1656 0
L 538 0
L 538 3500
L 1656 3500
L 1656 2925
Q 1872 3269 2151 3426
Q 2431 3584 2822 3584
Q 2878 3584 2943 3579
Q 3009 3575 3134 3559
L 3138 2547
z
" transform="scale(0.015625)"/>
     <path id="DejaVuSans-Bold-4a" d="M 2919 594
Q 2688 288 2409 144
Q 2131 0 1766 0
Q 1125 0 706 504
Q 288 1009 288 1791
Q 288 2575 706 3076
Q 1125 3578 1766 3578
Q 2131 3578 2409 3434
Q 2688 3291 2919 2981
L 2919 3500
L 4044 3500
L 4044 353
Q 4044 -491 3511 -936
Q 2978 -1381 1966 -1381
Q 1638 -1381 1331 -1331
Q 1025 -1281 716 -1178
L 716 -306
Q 1009 -475 1290 -558
Q 1572 -641 1856 -641
Q 2406 -641 2662 -400
Q 2919 -159 2919 353
L 2919 594
z
M 2181 2772
Q 1834 2772 1640 2515
Q 1447 2259 1447 1791
Q 1447 1309 1634 1061
Q 1822 813 2181 813
Q 2531 813 2725 1069
Q 2919 1325 2919 1791
Q 2919 2259 2725 2515
Q 2531 2772 2181 2772
z
" transform="scale(0.015625)"/>
     <path id="DejaVuSans-Bold-46" d="M 3366 3391
L 3366 2478
Q 3138 2634 2908 2709
Q 2678 2784 2431 2784
Q 1963 2784 1702 2511
Q 1441 2238 1441 1747
Q 1441 1256 1702 982
Q 1963 709 2431 709
Q 2694 709 2930 787
Q 3166 866 3366 1019
L 3366 103
Q 3103 6 2833 -42
Q 2563 -91 2291 -91
Q 1344 -91 809 395
Q 275 881 275 1747
Q 275 2613 809 3098
Q 1344 3584 2291 3584
Q 2566 3584 2833 3536
Q 3100 3488 3366 3391
z
" transform="scale(0.015625)"/>
    </defs>
    <use xlink:href="#DejaVuSans-Bold-29"/>
    <use xlink:href="#DejaVuSans-Bold-4c" transform="translate(68.3125 0)"/>
    <use xlink:href="#DejaVuSans-Bold-51" transform="translate(102.59375 0)"/>
    <use xlink:href="#DejaVuSans-Bold-44" transform="translate(173.78125 0)"/>
    <use xlink:href="#DejaVuSans-Bold-4f" transform="translate(241.265625 0)"/>
    <use xlink:href="#DejaVuSans-Bold-3" transform="translate(275.546875 0)"/>
    <use xlink:href="#DejaVuSans-Bold-4f" transform="translate(310.359375 0)"/>
    <use xlink:href="#DejaVuSans-Bold-52" transform="translate(344.640625 0)"/>
    <use xlink:href="#DejaVuSans-Bold-56" transform="translate(413.34375 0)"/>
    <use xlink:href="#DejaVuSans-Bold-56" transform="translate(472.859375 0)"/>
    <use xlink:href="#DejaVuSans-Bold-3" transform="translate(532.375 0)"/>
    <use xlink:href="#DejaVuSans-Bold-45" transform="translate(567.1875 0)"/>
    <use xlink:href="#DejaVuSans-Bold-5c" transform="translate(638.765625 0)"/>
    <use xlink:href="#DejaVuSans-Bold-3" transform="translate(703.953125 0)"/>
    <use xlink:href="#DejaVuSans-Bold-57" transform="translate(738.765625 0)"/>
    <use xlink:href="#DejaVuSans-Bold-55" transform="translate(786.5625 0)"/>
    <use xlink:href="#DejaVuSans-Bold-44" transform="translate(835.875 0)"/>
    <use xlink:href="#DejaVuSans-Bold-4c" transform="translate(903.359375 0)"/>
    <use xlink:href="#DejaVuSans-Bold-51" transform="translate(937.640625 0)"/>
    <use xlink:href="#DejaVuSans-Bold-4c" transform="translate(1008.828125 0)"/>
    <use xlink:href="#DejaVuSans-Bold-51" transform="translate(1043.109375 0)"/>
    <use xlink:href="#DejaVuSans-Bold-4a" transform="translate(1114.296875 0)"/>
    <use xlink:href="#DejaVuSans-Bold-3" transform="translate(1185.875 0)"/>
    <use xlink:href="#DejaVuSans-Bold-46" transform="translate(1220.6875 0)"/>
    <use xlink:href="#DejaVuSans-Bold-52" transform="translate(1279.96875 0)"/>
    <use xlink:href="#DejaVuSans-Bold-56" transform="translate(1348.671875 0)"/>
    <use xlink:href="#DejaVuSans-Bold-57" transform="translate(1408.1875 0)"/>
   </g>
  </g>
 </g>
 <defs>
  <clipPath id="p2b1a176a53">
   <rect x="47.962344" y="51.840703" width="450.637656" height="350.674609"/>
  </clipPath>
  <clipPath id="p7814055840">
   <rect x="546.562344" y="51.840703" width="450.637656" height="350.674609"/>
  </clipPath>
 </defs>
</svg>
